<svg xmlns="http://www.w3.org/2000/svg" aria-hidden="true" style="position:absolute;width:0;height:0;overflow:hidden">
  <defs>
    <symbol id="facebook-icon" viewBox="0 0 32 32">
      <path fill="#f4f4fd" d="M21.329 5.313h2.921V.225C23.746.156 22.013 0 19.994 0c-4.212 0-7.097 2.649-7.097 7.519V12H8.249v5.688h4.648V32h5.699V17.689h4.46l.708-5.688h-5.169V8.082c.001-1.644.444-2.769 2.735-2.769z" style="fill:var(--color1, #f4f4fd)"/>
    </symbol>
    <symbol id="instagram-icon" viewBox="0 0 32 32">
      <path fill="#f4f4fd" d="M31.969 9.408c-.075-1.7-.35-2.869-.744-3.882a7.803 7.803 0 0 0-1.85-2.838A7.867 7.867 0 0 0 26.543.844C25.524.45 24.361.175 22.661.1 20.948.019 20.404 0 16.06 0s-4.888.019-6.595.094c-1.7.075-2.869.35-3.882.744a7.803 7.803 0 0 0-2.838 1.85A7.867 7.867 0 0 0 .901 5.52C.507 6.539.232 7.702.157 9.402c-.081 1.713-.1 2.257-.1 6.601s.019 4.888.094 6.595c.075 1.7.35 2.869.744 3.882a7.895 7.895 0 0 0 1.85 2.838 7.867 7.867 0 0 0 2.832 1.844c1.019.394 2.182.669 3.882.744 1.706.075 2.25.094 6.595.094s4.888-.019 6.595-.094c1.7-.075 2.869-.35 3.882-.744a8.181 8.181 0 0 0 4.682-4.682c.394-1.019.669-2.182.744-3.882.075-1.707.094-2.25.094-6.595s-.006-4.888-.081-6.595zm-2.882 13.065c-.069 1.563-.331 2.407-.55 2.969a5.31 5.31 0 0 1-3.038 3.038c-.563.219-1.413.481-2.969.55-1.688.075-2.194.094-6.464.094s-4.782-.019-6.464-.094c-1.563-.069-2.407-.331-2.969-.55a4.926 4.926 0 0 1-1.838-1.194 4.974 4.974 0 0 1-1.194-1.838c-.219-.563-.481-1.413-.55-2.969-.075-1.688-.094-2.194-.094-6.464s.019-4.782.094-6.464c.069-1.563.331-2.407.55-2.969a4.868 4.868 0 0 1 1.2-1.838A4.974 4.974 0 0 1 6.639 3.55c.563-.219 1.413-.481 2.969-.55 1.688-.075 2.194-.094 6.464-.094 4.276 0 4.782.019 6.464.094 1.563.069 2.407.331 2.969.55a4.914 4.914 0 0 1 1.838 1.194 4.974 4.974 0 0 1 1.194 1.838c.219.563.481 1.413.55 2.969.075 1.688.094 2.194.094 6.464s-.019 4.77-.094 6.458z" style="fill:var(--color1, #f4f4fd)"/>
      <path fill="#f4f4fd" d="M16.059 7.783c-4.538 0-8.22 3.682-8.22 8.22s3.682 8.22 8.22 8.22 8.22-3.682 8.22-8.22-3.682-8.22-8.22-8.22zm0 13.552a5.333 5.333 0 0 1 0-10.664 5.333 5.333 0 0 1 0 10.664zM26.524 7.458a1.919 1.919 0 1 1-3.838 0 1.919 1.919 0 0 1 3.838 0z" style="fill:var(--color1, #f4f4fd)"/>
    </symbol>
    <symbol id="linkedin-icon" viewBox="0 0 32 32">
      <path fill="#f4f4fd" d="M31.992 32v-.001H32V20.263c0-5.741-1.236-10.164-7.948-10.164-3.227 0-5.392 1.771-6.276 3.449h-.093v-2.913h-6.364v21.364h6.627V21.42c0-2.785.528-5.479 3.977-5.479 3.399 0 3.449 3.179 3.449 5.657v10.401h6.62zM.528 10.636h6.635V32H.528V10.636zM3.843 0C1.722 0 0 1.721 0 3.843s1.721 3.879 3.843 3.879c2.121 0 3.843-1.757 3.843-3.879A3.846 3.846 0 0 0 3.843 0z" style="fill:var(--color1, #f4f4fd)"/>
    </symbol>
    <symbol id="twitter-icon" viewBox="0 0 32 32">
      <path fill="#f4f4fd" d="M32 6.078c-1.19.522-2.458.868-3.78 1.036a6.523 6.523 0 0 0 2.886-3.626 13.11 13.11 0 0 1-4.16 1.588A6.574 6.574 0 0 0 22.154 3c-3.632 0-6.556 2.948-6.556 6.562 0 .52.044 1.02.152 1.496-5.454-.266-10.28-2.88-13.522-6.862a6.605 6.605 0 0 0-.898 3.316 6.57 6.57 0 0 0 2.914 5.452 6.479 6.479 0 0 1-2.964-.808v.072c0 3.188 2.274 5.836 5.256 6.446a6.548 6.548 0 0 1-1.72.216 5.8 5.8 0 0 1-1.242-.112c.85 2.598 3.262 4.508 6.13 4.57a13.182 13.182 0 0 1-8.134 2.798c-.538 0-1.054-.024-1.57-.09A18.469 18.469 0 0 0 10.064 29c12.072 0 18.672-10 18.672-18.668 0-.29-.01-.57-.024-.848A13.087 13.087 0 0 0 32 6.078z" style="fill:var(--color1, #f4f4fd)"/>
    </symbol>
    <symbol id="advantages-icon-1" viewBox="0 0 32 32">
      <path fill="#2e3042" d="m30.75 22.1-8.45-8.5.95-4.6c.25.1.5.15.75.15 1.2 0 2.15-.95 2.2-2.15 0-1.2-.95-2.15-2.15-2.2-1.2 0-2.15.95-2.2 2.15 0 .25 0 .5.1.75L17 8.3 8.95.15C8.85.05 8.7 0 8.55 0S8.3.05 8.2.15l-1.5 1.5c-.2.2-.2.55 0 .75l.8.85c-3.15 5.8-2.15 13 2.5 17.65 0 0 .1.05.15.1 0 .2-.05.35-.05.55v6.2H3.7c-1.45 0-2.65 1.2-2.65 2.65v1.05c0 .3.25.55.55.55h24.55c.3 0 .55-.25.55-.55V30.4c0-1.45-1.2-2.65-2.65-2.65h-6.4V25c1 .2 2 .3 3.05.3 2.45 0 4.9-.6 7.05-1.8l.8.8c.1.1.25.15.4.15s.25-.05.35-.15l1.5-1.5c.2-.2.2-.55 0-.75zm-7.5-15.85c.4-.4 1.1-.4 1.5 0s.4 1.1 0 1.5c-.2.2-.45.3-.75.3-.6 0-1.05-.5-1.05-1.05 0-.3.1-.55.3-.75zM22 9.75l-.6 2.95-1.2-1.2 1.75-1.75zm-.6-.9-1.9 1.9-1.5-1.5 3.4-.4zM24 28.8c.9 0 1.6.7 1.6 1.6v.55H2.1v-.55c0-.9.7-1.6 1.6-1.6h20.25zm-7.5-2.15v1.05h-5.35v-1.05h5.35zm-5.3-1.05v-4.05c0-1.3 1.2-2.35 2.65-2.35s2.65 1.05 2.65 2.35v4.05h-5.35zm6.4-1.7v-2.35c0-1.9-1.65-3.4-3.75-3.4-1.35 0-2.6.65-3.3 1.8C6.5 15.7 5.6 9.3 8.25 4.05l18.6 18.7C24 24.2 20.7 24.6 17.55 23.9zm11.3-.7-.75-.75-20.3-20.4.75-.75 7.95 8 13.1 13.2-.75.75z" style="fill:var(--color2, #2e3042)"/>
      <path fill="#4859a4" d="M13.85 20.25c-.9 0-1.6.7-1.6 1.6s.7 1.6 1.6 1.6c.9 0 1.6-.7 1.6-1.6s-.7-1.6-1.6-1.6zm.4 2c-.1.1-.25.15-.4.15-.3 0-.55-.25-.55-.55 0-.15.05-.3.15-.4s.25-.15.35-.15c.3 0 .55.25.55.55 0 .15-.05.3-.15.4z" style="fill:var(--color3, #4859a4)"/>
    </symbol>
    <symbol id="advantages-icon-2" viewBox="0 0 32 32">
      <path fill="#2e3042" d="M31.3 15.3C31.3 6.85 24.45 0 16 0S.7 6.85.7 15.3c0 6.65 4.3 12.55 10.65 14.6h.2c.1 0 .25 0 .35-.1.15-.1.25-.2.3-.35l3.85-12.25a1.9 1.9 0 1 0 0-3.8c-.3 0-.55.05-.8.2l-5.1-5.1c-.25-.25-.65-.25-.9 0s-.25.65 0 .9l5.1 5.1c-.4.8-.15 1.75.55 2.3l-3.7 11.65C3.85 25.8.1 17.7 2.8 10.45c2.7-7.3 10.75-11 18.05-8.35 7.3 2.7 11 10.75 8.3 18.05-1.3 3.55-4 6.45-7.45 7.95l-.4-1.85c-.05-.35-.4-.55-.75-.5-.1 0-.2.05-.3.15l-3.85 3.45c-.25.25-.3.65-.05.9.1.1.15.15.3.2l4.9 1.55c.35.1.7-.1.8-.4v-.35l-.4-1.85c5.65-2.4 9.35-7.95 9.35-14.1zM16 14.65c.35 0 .65.3.65.65s-.3.65-.65.65-.65-.3-.65-.65.3-.65.65-.65zm2.1 14.9 2.2-1.95.6 2.85-2.8-.9z" style="fill:var(--color2, #2e3042)"/>
      <path fill="#4859a4" d="M15.35 3.2v1.3c0 .35.3.65.65.65s.65-.3.65-.65V3.2c0-.35-.3-.65-.65-.65s-.65.3-.65.65zM3.9 14.65c-.35 0-.65.3-.65.65s.3.65.65.65h1.3c.35 0 .65-.3.65-.65s-.3-.65-.65-.65H3.9zM28.1 15.95c.35 0 .65-.3.65-.65s-.3-.65-.65-.65h-1.3c-.35 0-.65.3-.65.65s.3.65.65.65h1.3z" style="fill:var(--color3, #4859a4)"/>
    </symbol>
    <symbol id="advantages-icon-3" viewBox="0 0 32 32">
      <path fill="#4859a4" d="M14.95 14.95H16v4.8h-1.05v-4.8zM19.2 17.1h1.05v2.65H19.2V17.1zM10.65 18.7h1.05v1.05h-1.05V18.7zM7.45 18.15H8.5v1.6H7.45v-1.6z" style="fill:var(--color3, #4859a4)"/>
      <path fill="#2e3042" d="M1.6 28.3h25.6c.9 0 1.6-.7 1.6-1.6v-2.15c0-.9-.7-1.6-1.6-1.6h-.55V9.65L29.7 6.8c.7.35 1.55.15 2-.5s.4-1.5-.15-2.05c-.55-.55-1.4-.65-2.05-.2s-.85 1.3-.55 2l-2.3 2.15V6.95c0-.9-.7-1.6-1.6-1.6H3.75c-.9 0-1.6.7-1.6 1.6v16H1.6c-.9 0-1.6.7-1.6 1.6v2.15c0 .9.7 1.6 1.6 1.6zM30.4 4.85c.3 0 .55.25.55.55s-.25.55-.55.55-.55-.25-.55-.55.25-.55.55-.55zM3.2 6.95c0-.3.25-.55.55-.55h21.3c.3 0 .55.25.55.55V9.2l-1.05 1V8c0-.3-.25-.55-.55-.55H4.8c-.3 0-.55.25-.55.55v13.35c0 .3.25.55.55.55H24c.3 0 .55-.25.55-.55V11.7l1.05-1V23H3.2V6.95zM8 13.9c-.7 0-1.35.5-1.55 1.15-.2.7.1 1.45.75 1.8.6.35 1.4.3 1.95-.25l1.85.95c.2.1.5.05.65-.1L15.6 13l3.85 2.9c.2.15.5.15.7 0l3.35-3.2v8.15H5.35V8.6h18.1v2.65L19.7 14.8l-3.9-2.95c-.2-.15-.55-.15-.7.05l-4 4.5-1.5-.75v-.2c0-.9-.7-1.6-1.6-1.6zm.55 1.6c0 .3-.25.55-.55.55s-.55-.25-.55-.55.25-.55.55-.55.55.25.55.55zm3.2 8.55h5.35v.55c0 .3-.25.55-.55.55H12.3c-.3 0-.55-.25-.55-.55v-.55zm-10.7.5c0-.3.25-.55.55-.55h9.05v.55c0 .9.7 1.6 1.6 1.6h4.25c.9 0 1.6-.7 1.6-1.6V24h9.05c.3 0 .55.25.55.55v2.15c0 .3-.25.55-.55.55H1.6c-.3 0-.55-.25-.55-.55v-2.15z" style="fill:var(--color2, #2e3042)"/>
    </symbol>
    <symbol id="advantages-icon-4" viewBox="0 0 32 32">
      <path fill="#4859a4" d="M31.95 4.5a.48.48 0 0 0-.45-.35l-1.9-.3-.85-1.75c-.2-.35-.8-.35-.95 0l-.85 1.75-1.9.3c-.2 0-.35.15-.45.35-.05.2 0 .4.15.55l1.4 1.35-.35 1.9c0 .2 0 .4.2.5.15.1.4.15.55 0l1.7-.9 1.7.9c.1 0 .15.05.25.05s.2 0 .3-.1c.15-.1.25-.3.2-.5l-.35-1.9L31.75 5c.15-.15.2-.35.15-.55zM29.5 5.85c-.15.1-.2.3-.15.45l.2 1.1-1-.55c-.1 0-.15-.05-.25-.05s-.15 0-.25.05l-1 .55.2-1.1c0-.15 0-.35-.15-.45l-.8-.8 1.1-.15c.15 0 .3-.15.4-.3l.5-1 .5 1c.1.15.25.25.4.3l1.1.15-.8.8zM26.15 20.5H25.1v1.05h1.05V20.5zM26.15 22.65H25.1v1.05h1.05v-1.05z" style="fill:var(--color3, #4859a4)"/>
      <path fill="#4859a4" d="M27.2 21.6h-1.05v1.05h1.05V21.6zM25.05 21.6H24v1.05h1.05V21.6zM22.4 26.4h-1.05v1.05h1.05V26.4zM22.4 28.5h-1.05v1.05h1.05V28.5zM23.45 27.45H22.4v1.05h1.05v-1.05zM21.35 27.45H20.3v1.05h1.05v-1.05zM16 24.25h-1.05v1.05H16v-1.05zM16 26.4h-1.05v1.05H16V26.4zM17.05 25.3H16v1.05h1.05V25.3zM14.95 25.3H13.9v1.05h1.05V25.3zM5.85 6.1H4.8v1.05h1.05V6.1zM5.85 8.25H4.8V9.3h1.05V8.25zM6.95 7.2H5.9v1.05h1.05V7.2zM4.8 7.2H3.75v1.05H4.8V7.2z" style="fill:var(--color3, #4859a4)"/>
      <path fill="#2e3042" d="M24.7 14.15c-.3-.4-.7-.65-1.2-.7s-.95.05-1.35.35l-1.25.95-1.9 1.4-1.35-.55c2.4-1.1 4.1-3.5 4.1-6.3s-3.1-6.95-6.95-6.95-6.95 3.1-6.95 6.95.4 2.65 1.1 3.75h-2.9l-3.25 1.6-1.9.9H.85c-.75.5-1 1.5-.6 2.3.2.45.6.75 1.05.9.2.05.35.1.55.1.3 0 .6-.05.85-.2l1.4-.75 2.25-1.15H7.7l-5.45 5.4L.9 23.5c-.3.3-.5.75-.5 1.2s.15.85.5 1.2c.3.3.75.5 1.2.5s.85-.15 1.2-.5l1.3-1.3 1.75-1.3.9.9-1.75 1.75-1.35 1.35c-.3.3-.5.75-.5 1.2s.15.85.5 1.2c.3.3.75.5 1.2.5s.85-.15 1.2-.5l3.5-3.5 1-1 5.15-5.65 3.45.5H20l3.2-2.15 1.25-1.2c.65-.6.75-1.65.2-2.35zm-22.55 3.6c-.15.1-.35.1-.55.05s-.35-.2-.45-.35c-.15-.3-.05-.7.2-.9l1.3-.65.3.9.15.4-1 .55zm3.5-1.8-1.55.8-.25-.75-.2-.55 2.05-1v1.5zm15.1-6.65c0 .9-.2 1.8-.6 2.55l-4.2-1.9c0-.55-.35-1.1-.8-1.4L16.6 3.7c2.4.75 4.1 2.95 4.1 5.6zm-11.8 0c0-3.25 2.65-5.85 5.9-5.85s.5 0 .75.05l-1.45 4.75h-.05c-1.05 0-1.85.85-1.85 1.85s.85 1.85 1.85 1.85 1.3-.4 1.6-.95l3.85 1.75a5.87 5.87 0 0 1-4.75 2.4c-3.25 0-5.9-2.65-5.9-5.85zm5.95.8c0 .45-.35.8-.8.8s-.8-.35-.8-.8.35-.8.8-.8.8.35.8.8zM2.45 25.15c-.25.25-.6.25-.85 0-.1-.1-.2-.25-.2-.4s.05-.3.2-.4l.95-.95.85.85-.95.95zM5.7 28.9c-.25.25-.6.25-.85 0-.1-.1-.2-.25-.2-.4s.05-.3.2-.4l.95-.95.85.85-.95.95zm3.45-3.5L7.4 27.15l-.85-.85 1.75-1.75s.05-.1.1-.15 0-.1 0-.15V24c0-.05-.05-.1-.1-.15l-1.6-1.6h-.05s-.05 0-.1-.05H6l-1.75 1.3-.9-.9 2.4-2.4 4.35 4.3-.95.9zm6.85-7H15.7s-.05 0-.1.05l-4.7 5.15-4.35-4.25 2.85-2.8c.2-.2.2-.55 0-.75-.1-.1-.25-.15-.4-.15H6.8v-1.6h3.15c1.25 1.3 3.05 2.1 5 2.1s.85 0 1.3-.1c0 0 .1.05.15.1l2.4.95.15.75.2.9-3-.45zm4 .15L19.7 17l1.45-1.1.4.5.55.75-2.1 1.4zm3.75-2.8-.85.8-.95-1.25.85-.65c.15-.1.35-.15.55-.15s.35.15.5.3c.2.3.2.7-.1.95z" style="fill:var(--color2, #2e3042)"/>
      <path fill="#2e3042" d="m13.6 18.55-2.15-2.15c-.2-.2-.55-.2-.75 0l-2.15 2.15c-.1.1-.15.25-.15.4s.05.3.15.4l2.15 2.15c.1.1.25.15.4.15s.25-.05.4-.15l2.15-2.15c.1-.1.15-.25.15-.4s-.05-.3-.15-.4zm-2.5 1.75-1.4-1.4 1.4-1.4 1.4 1.4-1.4 1.4zM17.15 5.05 16.9 6.1c.05 0 1.75.45 1.75 2.15h1.05c0-2-1.65-2.95-2.55-3.2zM19.7 9.3h-1.05v1.05h1.05V9.3z" style="fill:var(--color2, #2e3042)"/>
    </symbol>
    <symbol id="email-icon" viewBox="0 0 24 32">
      <path d="M20 8H4c-1.1 0-1.99.9-1.99 2L2 22c0 1.1.9 2 2 2h16c1.1 0 2-.9 2-2V10c0-1.1-.9-2-2-2zm-.4 4.25-7.07 4.42c-.32.2-.74.2-1.06 0L4.4 12.25a.85.85 0 1 1 .9-1.44L12 15l6.7-4.19a.85.85 0 1 1 .9 1.44z"/>
    </symbol>
    <symbol id="person-icon" viewBox="0 0 32 32">
      <path d="M16 16c2.947 0 5.333-2.387 5.333-5.333S18.946 5.334 16 5.334c-2.947 0-5.333 2.387-5.333 5.333S13.054 16 16 16zm0 2.667c-3.56 0-10.667 1.787-10.667 5.333v1.333c0 .733.6 1.333 1.333 1.333h18.667c.733 0 1.333-.6 1.333-1.333V24c0-3.547-7.107-5.333-10.667-5.333z"/>
    </symbol>
    <symbol id="phone-icon" viewBox="0 0 24 32">
      <path d="m19.635 18.487-2.451-.28a1.92 1.92 0 0 0-1.582.55l-1.775 1.775a14.514 14.514 0 0 1-6.359-6.359l1.785-1.785c.415-.415.618-.994.55-1.582l-.28-2.432a1.931 1.931 0 0 0-1.92-1.708H5.934c-1.09 0-1.997.907-1.93 1.997.511 8.24 7.102 14.821 15.332 15.332 1.09.068 1.997-.839 1.997-1.93v-1.669a1.913 1.913 0 0 0-1.698-1.911z"/>
    </symbol>
    <symbol id="send-icon" viewBox="0 0 38 32">
      <path fill="#fff" d="M38.4 0 0 18l12.272 3.788L31.2 7 16.803 23.186l.012.004-.014-.004V32l6.882-6.691L32.401 28l6-28z" style="fill:var(--color1, #fff)"/>
    </symbol>
    <symbol id="close-icon" viewBox="0 0 32 32">
      <path d="M32 3.223 28.777 0 16 12.777 3.223 0 0 3.223 12.777 16 0 28.777 3.223 32 16 19.223 28.777 32 32 28.777 19.223 16 32 3.223z"/>
    </symbol>
    <symbol id="checkbox-icon" viewBox="0 0 40 32">
      <path d="M33.782 1.02a3.668 3.668 0 0 1 5.115.039 3.712 3.712 0 0 1 .135 5.141L19.454 30.817a3.674 3.674 0 0 1-4.074.914 3.675 3.675 0 0 1-1.226-.815L1.17 17.862A3.693 3.693 0 0 1-.001 15.22a3.714 3.714 0 0 1 1.077-2.682 3.664 3.664 0 0 1 4.1-.763 3.68 3.68 0 0 1 1.195.857l10.275 10.325 17.042-21.83c.031-.038.063-.074.098-.109h-.005z"/>
    </symbol>
  </defs>
</svg>